<svg width="166" height="111" viewBox="0 0 166 111" fill="none" xmlns="http://www.w3.org/2000/svg">
<path d="M9.02566 10.3419L9 10.4189V10.5V15.5H10V10.5811L12.7396 2.36233C15.3855 1.28828 18.3384 0.636626 21.4722 0.519209L18.5211 10.3563L18.5 10.4266V10.5V16.5H19.5V10.5734L22.4789 0.643674L22.0143 0.50428C22.1757 0.501432 22.3376 0.5 22.5 0.5C25.0696 0.5 27.5295 0.858653 29.8126 1.51648L27.0232 10.3494L27 10.4229V10.5V17.5H28V10.5771L30.7678 1.81249C34.6148 3.08979 37.9083 5.23106 40.3048 7.93169L40.0281 7.83482L36.5281 17.8348L36.4381 18.0919L36.6053 18.307L40.1053 22.807L40.8947 22.193L37.5619 17.9081L40.835 8.55635C43.1543 11.4153 44.5 14.8398 44.5 18.5C44.5 23.7935 41.6853 28.5941 37.1816 31.9038C29.9432 28.4284 22.3016 28.3696 16.2965 31.0432C14.4591 31.8613 12.8813 32.8891 11.5663 34.1244C4.92949 31.0055 0.5 25.1406 0.5 18.5C0.5 11.88 4.90213 6.03084 11.5047 2.90461L9.02566 10.3419ZM16.7032 31.9568C22.2593 29.4831 29.3867 29.4482 36.2317 32.5632C32.4809 35.0219 27.7166 36.5 22.5 36.5C18.9142 36.5 15.5421 35.8016 12.566 34.5664C13.7292 33.5391 15.1063 32.6678 16.7032 31.9568ZM11.7833 35.3142C14.9921 36.7116 18.6424 37.5 22.5 37.5C28.1007 37.5 33.2646 35.8382 37.2744 33.0634C42.7555 35.8295 47.9926 40.6588 52.0196 47.9218C51.2234 48.3055 50.4442 48.6991 49.6828 49.1023C37.3141 55.6504 29.5 64.7824 29.5 75C29.5 83.7271 35.2006 91.6622 44.5708 97.8718C40.3306 97.8645 35.6717 96.0084 31.0925 92.6023C24.5095 87.7058 18.1906 79.6688 13.7262 69.6416C9.2459 59.5786 7.25462 51.3476 7.75655 45.0394C8.00687 41.8935 8.87626 39.2377 10.3556 37.0672C10.7796 36.445 11.2553 35.8605 11.7833 35.3142ZM50.1507 49.986C50.9142 49.5818 51.6961 49.1872 52.4956 48.8025C52.9917 49.7441 53.4679 50.7248 53.9222 51.7452C58.3866 61.7724 60.1312 71.846 59.3651 80.0145C58.5973 88.201 55.3281 94.3574 49.8903 96.7785C48.7358 97.2925 47.5215 97.6212 46.2617 97.7731C36.3571 91.5571 30.5 83.5935 30.5 75C30.5 65.3353 37.9082 56.4674 50.1507 49.986ZM47.5727 98.5717C48.5048 98.3764 49.4147 98.0848 50.2971 97.692C56.2114 95.0588 59.5775 88.4592 60.3607 80.1079C61.1456 71.7387 59.3568 61.4928 54.8358 51.3385C54.3788 50.3121 53.8997 49.3244 53.4003 48.3749C65.2889 42.8565 80.8939 39.5 98 39.5C116.713 39.5 133.629 43.5166 145.849 49.986C158.092 56.4674 165.5 65.3353 165.5 75C165.5 84.6647 158.092 93.5326 145.849 100.014C133.629 106.483 116.713 110.5 98 110.5C79.2872 110.5 62.3708 106.483 50.1507 100.014C49.2658 99.5455 48.4061 99.0645 47.5727 98.5717Z" fill="white" stroke="black"/>
</svg>
